#N canvas 760 184 316 412 10;
#X obj 20 197 bng 15 250 50 0 empty empty empty 17 7 0 10 -262144 -1
-1;
#X obj 61 262 print;
#X obj 60 175 bonk~;
#X obj 60 121 adc~;
#X obj 160 67 receive startAudio;
#X floatatom 98 132 5 0 0 0 - - -;
#X msg 168 203 newDetection;
#X obj 109 262 s tempo;
#X obj 53 197 unpack f f f;
#X obj 61 224 pdbeatdetection;
#X floatatom 186 262 5 0 0 0 - - -;
#X obj 186 284 / 60;
#X obj 186 305 inv;
#X obj 186 327 * 1000;
#X floatatom 186 349 5 0 0 0 - - -;
#X obj 91 351 metro;
#X obj 91 328 t b f;
#X obj 91 374 bng 15 250 50 0 empty empty empty 17 7 0 10 -262144 -1
-1;
#X obj 59 149 *~ 0.015;
#X connect 2 0 0 0;
#X connect 2 1 8 0;
#X connect 3 0 18 0;
#X connect 4 0 6 0;
#X connect 5 0 18 1;
#X connect 6 0 9 0;
#X connect 8 1 9 0;
#X connect 9 0 1 0;
#X connect 9 0 7 0;
#X connect 9 0 10 0;
#X connect 10 0 11 0;
#X connect 11 0 12 0;
#X connect 12 0 13 0;
#X connect 13 0 14 0;
#X connect 14 0 16 0;
#X connect 15 0 17 0;
#X connect 16 0 15 0;
#X connect 16 1 15 1;
#X connect 18 0 2 0;
